# File created by Blade
# Date/Time:  Wed Sep 24 19:42:34 2014
# Frame Rate: 120.000 fps
#------------------------------------------------------
:FULLY-SPECIFIED
:DEGREES
1477
root -4.795650 33.038277 -2.823793 7.715725 7.335651 -2.193105
Spine -14.839350 14.543005 -4.616387
Head 17.515144 -17.707138 12.415126
LeftShoulder -11.759989 19.619415 9.686388
LeftArm 23.933762 33.530981 -67.310293
LeftForeArm 0.598819 -0.000000 23.743268
LeftHand -24.086813 0.000000 -7.586141
LeftHandThumb1 -26.253704 0.000000 33.147579
RightShoulder 83.588290 119.290819 19.012413
RightArm -6.886717 16.781594 45.139260
RightForeArm 35.766835 0.000000 58.121864
RightHand -8.581851 -0.000000 -28.787574
RightHandThumb1 -24.326973 -0.000000 -32.862282
LeftUpLeg -1.987041 1.529255 6.889524
LeftLeg -2.358073 -0.000000 0.000000
LeftFoot -7.384301 3.452865 -19.107279
LeftToeBase 10.076405 -0.000000 -0.000000
RightUpLeg -2.218877 -11.643261 1.037583
RightLeg 0.870772 -0.000000 -0.000000
RightFoot -5.823262 -5.327061 -14.180545
RightToeBase 0.223289 -0.000000 -0.000000
1478
root -4.800054 33.039558 -2.813121 7.637541 7.265974 -2.218988
Spine -14.852618 14.507368 -4.711108
Head 17.478352 -17.872649 12.411934
LeftShoulder -11.799925 19.693609 9.680691
LeftArm 23.934777 33.334125 -67.338872
LeftForeArm 0.560446 0.000000 23.781228
LeftHand -24.246262 -0.000000 -7.623660
LeftHandThumb1 -26.253704 0.000000 33.147579
RightShoulder 83.370060 119.271355 18.687063
RightArm -6.953567 16.505961 45.188281
RightForeArm 34.566364 -0.000000 54.497498
RightHand -9.058043 -0.000000 -29.853016
RightHandThumb1 -24.326973 -0.000000 -32.862282
LeftUpLeg -1.886793 1.560862 6.920221
LeftLeg -2.340370 -0.000000 0.000000
LeftFoot -7.421488 3.470490 -19.118509
LeftToeBase 10.128823 -0.000000 -0.000000
RightUpLeg -2.150741 -11.572472 1.051348
RightLeg 0.911232 -0.000000 -0.000000
RightFoot -5.811841 -5.353009 -14.193687
RightToeBase 0.251851 -0.000000 -0.000000
1479
root -4.801837 33.040905 -2.802230 7.550220 7.175117 -2.249568
Spine -14.861242 14.480510 -4.800150
Head 17.446597 -17.949876 12.426221
LeftShoulder -11.835459 19.716763 9.681107
LeftArm 23.886225 33.185059 -67.394083
LeftForeArm 0.589695 -0.000000 23.759632
LeftHand -24.096363 -0.000000 -7.440668
LeftHandThumb1 -26.253704 0.000000 33.147579
RightShoulder 83.281137 119.171545 18.465211
RightArm -7.146148 16.225471 45.147183
RightForeArm 33.431017 0.000000 51.140359
RightHand -9.686827 -0.000000 -30.878778
RightHandThumb1 -24.326973 -0.000000 -32.862282
LeftUpLeg -1.764916 1.596274 6.948568
LeftLeg -2.337457 -0.000000 0.000000
LeftFoot -7.453943 3.502340 -19.141744
LeftToeBase 10.136440 -0.000000 -0.000000
RightUpLeg -2.075397 -11.506966 1.061039
RightLeg 0.951693 -0.000000 -0.000000
RightFoot -5.805541 -5.346025 -14.192281
RightToeBase 0.202218 -0.000000 -0.000000
1480
root -4.805363 33.042106 -2.789102 7.436137 7.071874 -2.291158
Spine -14.840516 14.463305 -4.877548
Head 17.409575 -18.038234 12.460316
LeftShoulder -11.866331 19.746465 9.683181
LeftArm 23.855269 33.059795 -67.424208
LeftForeArm 0.605474 -0.000000 23.773558
LeftHand -24.205238 -0.000000 -7.529463
LeftHandThumb1 -26.253704 0.000000 33.147579
RightShoulder 82.921863 119.153482 17.958300
RightArm -7.455313 16.042566 45.220848
RightForeArm 32.419408 0.000000 47.900396
RightHand -10.399832 -0.000000 -31.600159
RightHandThumb1 -24.326973 -0.000000 -32.862282
LeftUpLeg -1.606553 1.613265 6.992234
LeftLeg -2.345197 -0.000000 0.000000
LeftFoot -7.495044 3.570606 -19.172529
LeftToeBase 10.125394 -0.000000 -0.000000
RightUpLeg -1.967447 -11.449320 1.075777
RightLeg 0.983173 -0.000000 -0.000000
RightFoot -5.807100 -5.308226 -14.164520
RightToeBase 0.173156 -0.000000 -0.000000
